<?xml version="1.0" encoding="iso-8859-1"?>
<!-- Generator: Adobe Illustrator 19.0.0, SVG Export Plug-In . SVG Version: 6.00 Build 0)  -->
<svg version="1.1" id="Capa_1" xmlns="http://www.w3.org/2000/svg" xmlns:xlink="http://www.w3.org/1999/xlink" x="0px" y="0px"
	 viewBox="0 0 469.333 469.333" style="enable-background:new 0 0 469.333 469.333;" xml:space="preserve">
<path style="fill:#303C42;" d="M469.333,170.667c0-20-6.604-36.615-19.083-48.042c-11.406-10.438-26.927-15.958-44.885-15.958
	h-0.031c-20.853,0.008-49.091,14.943-76.987,34.32c19.378-27.896,34.313-56.134,34.32-76.987c0.01-17.969-5.51-33.5-15.958-44.917
	C335.281,6.604,318.667,0,298.667,0c-21.344,0-48.115,14.729-64,28.031C218.781,14.729,192.01,0,170.667,0
	c-38.865,0-63.99,25.125-64,63.99c-0.012,20.839,14.924,49.081,34.309,76.986c-27.892-19.376-56.121-34.309-76.954-34.309
	c-0.01,0-0.021,0-0.021,0c-38.875,0.01-64,25.135-64,64c0,21.344,14.729,48.115,28.031,64C14.729,250.552,0,277.323,0,298.667
	c0,38.875,25.125,64,64,64c20.845,0,49.081-14.932,76.975-34.309c-19.376,27.895-34.309,56.13-34.309,76.975
	c0,38.875,25.125,64,64,64c21.344,0,48.115-14.729,64-28.031c15.885,13.302,42.656,28.031,64,28.031c38.865,0,63.99-25.125,64-63.99
	c0.005-10.124-3.599-22.029-9.439-34.759c25.612,26.746,53.638,59.461,75.064,93.738c2.021,3.24,5.5,5.01,9.052,5.01
	c1.927,0,3.885-0.521,5.646-1.625c4.99-3.115,6.51-9.698,3.385-14.698c-24.319-38.915-56.159-75.348-84.107-103.936
	c15.842,8.227,30.76,13.595,43.044,13.592c0.01,0,0.021,0,0.021,0c38.875-0.01,64-25.135,64-64c0-21.344-14.729-48.115-28.031-64
	C454.604,218.781,469.333,192.01,469.333,170.667z"/>
<path style="fill:#69B342;" d="M170.667,21.333c17.49,0,45.656,17.031,56.115,28.51c4.042,4.458,11.729,4.458,15.771,0
	c10.458-11.479,38.625-28.51,56.115-28.51c14.052,0,24.917,4.094,32.302,12.156c6.781,7.406,10.365,17.958,10.365,30.51
	c-0.01,37.25-71.083,118.563-106.667,155.438C199.063,182.552,127.979,101.219,128,64C128,51.177,132.167,21.333,170.667,21.333z"/>
<path style="opacity:0.2;fill:#FFFFFF;enable-background:new    ;" d="M341.333,64c0-12.552-3.583-23.104-10.365-30.51
	c-7.385-8.063-18.25-12.156-32.302-12.156c-17.49,0-45.656,17.031-56.115,28.51c-4.042,4.458-11.729,4.458-15.771,0
	c-10.458-11.479-38.625-28.51-56.115-28.51C132.167,21.333,128,51.177,128,64c-0.02,35.259,63.725,110.043,100.714,149.189
	c-31.15-33.096-83.5-94.833-83.483-124.081c0-10.753,3.493-35.775,35.775-35.775c14.664,0,38.281,14.28,47.049,23.905
	c3.389,3.738,9.835,3.738,13.224,0c8.768-9.625,32.385-23.905,47.049-23.905c11.783,0,20.892,3.432,27.085,10.193
	c5.686,6.21,8.69,15.057,8.69,25.582c-0.008,31.233-59.6,99.41-89.436,130.329C270.25,182.563,341.323,101.25,341.333,64z"/>
<path style="fill:#69B342;" d="M21.333,298.667c0-17.49,17.031-45.656,28.51-56.115c2.229-2.021,3.49-4.885,3.49-7.885
	s-1.26-5.865-3.49-7.885c-11.479-10.458-28.51-38.625-28.51-56.115c0-38.5,29.844-42.667,42.677-42.667h0.01
	c37.219,0,118.542,71.073,155.417,106.667C182.563,270.26,101.229,341.333,64,341.333C51.167,341.333,21.333,337.177,21.333,298.667
	z"/>
<path style="opacity:0.2;fill:#FFFFFF;enable-background:new    ;" d="M89.6,325.333c-10.909,0-36.267-3.533-36.267-36.267
	c0-14.866,14.477-38.807,24.234-47.698c1.895-1.717,2.966-4.152,2.966-6.702c0-2.551-1.072-4.986-2.966-6.703
	c-9.758-8.889-24.234-32.831-24.234-47.697c0-32.725,25.367-36.267,36.276-36.267h0.008c12.947,0,32.193,10.185,52.538,24.214
	C112.464,145.892,82.693,128,64.021,128h-0.01c-12.833,0-42.677,4.167-42.677,42.667c0,17.49,17.031,45.656,28.51,56.115
	c2.229,2.021,3.49,4.885,3.49,7.885s-1.26,5.865-3.49,7.885c-11.479,10.458-28.51,38.625-28.51,56.115
	c0,38.51,29.833,42.667,42.667,42.667c18.681,0,48.466-17.9,78.167-40.228C121.813,315.141,102.555,325.333,89.6,325.333z"/>
<path style="fill:#69B342;" d="M298.667,448c-17.49,0-45.656-17.031-56.115-28.51c-2.021-2.229-4.885-3.49-7.885-3.49
	s-5.865,1.26-7.885,3.49C216.323,430.969,188.156,448,170.667,448C132.156,448,128,418.167,128,405.333
	c0-37.229,71.073-118.563,106.667-155.438c35.604,36.885,106.688,118.219,106.667,155.438C341.333,418.156,337.167,448,298.667,448z
	"/>
<path style="opacity:0.1;enable-background:new    ;" d="M240.266,255.772c29.152,30.978,78.109,88.721,78.094,116.083
	c0,10.061-3.268,33.478-33.477,33.478c-13.723,0-35.823-13.363-44.029-22.37c-1.586-1.75-3.833-2.738-6.188-2.738
	s-4.602,0.988-6.188,2.738c-8.206,9.007-30.306,22.37-44.029,22.37c-30.216,0-33.477-23.409-33.477-33.478
	c0-27.368,48.951-85.116,78.096-116.086C192.147,294.797,128,369.948,128,405.333c0,12.833,4.156,42.667,42.667,42.667
	c17.49,0,45.656-17.031,56.115-28.51c2.021-2.229,4.885-3.49,7.885-3.49s5.865,1.26,7.885,3.49
	C253.01,430.969,281.177,448,298.667,448c38.5,0,42.667-29.844,42.667-42.667C341.353,369.958,277.199,294.809,240.266,255.772z"/>
<path style="fill:#69B342;" d="M448,298.667c0,38.5-29.844,42.667-42.677,42.667h-0.01c-37.219-0.01-118.542-71.073-155.417-106.667
	C286.76,199.073,368.063,128.01,405.333,128h0.031c12.531,0,23.073,3.583,30.479,10.365c8.063,7.385,12.156,18.25,12.156,32.302
	c0,17.49-17.031,45.656-28.51,56.115c-2.229,2.021-3.49,4.885-3.49,7.885s1.26,5.865,3.49,7.885
	C430.969,253.01,448,281.177,448,298.667z"/>
<path style="opacity:0.1;enable-background:new    ;" d="M416,234.667c0-3,1.26-5.865,3.49-7.885
	c11.479-10.458,28.51-38.625,28.51-56.115c0-14.052-4.094-24.917-12.156-32.302C428.438,131.583,417.896,128,405.365,128h-0.031
	c-18.703,0.005-48.495,17.908-78.195,40.238c20.358-14.038,39.624-24.234,52.595-24.238h0.027c10.651,0,19.612,3.046,25.906,8.81
	c6.854,6.277,10.333,15.512,10.333,27.457c0,14.866-14.477,38.807-24.234,47.697c-1.895,1.717-2.966,4.152-2.966,6.703
	c0,2.549,1.072,4.984,2.966,6.702c9.758,8.891,24.234,32.832,24.234,47.698c0,32.725-25.367,36.267-36.276,36.267h-0.008
	c-12.949-0.004-32.198-10.194-52.546-24.224c29.694,22.323,59.469,40.219,78.142,40.224h0.01c12.833,0,42.677-4.167,42.677-42.667
	c0-17.49-17.031-45.656-28.51-56.115C417.26,240.531,416,237.667,416,234.667z"/>
<linearGradient id="SVGID_1_" gradientUnits="userSpaceOnUse" x1="-66.5274" y1="618.043" x2="-43.7584" y2="607.425" gradientTransform="matrix(21.3333 0 0 -21.3333 1430.1112 13315.2227)">
	<stop  offset="0" style="stop-color:#FFFFFF;stop-opacity:0.2"/>
	<stop  offset="1" style="stop-color:#FFFFFF;stop-opacity:0"/>
</linearGradient>
<path style="fill:url(#SVGID_1_);" d="M469.333,170.667c0-20-6.604-36.615-19.083-48.042
	c-11.406-10.438-26.927-15.958-44.885-15.958h-0.031c-20.853,0.008-49.091,14.943-76.987,34.32
	c19.378-27.896,34.313-56.134,34.32-76.987c0.01-17.969-5.51-33.5-15.958-44.917C335.281,6.604,318.667,0,298.667,0
	c-21.344,0-48.115,14.729-64,28.031C218.781,14.729,192.01,0,170.667,0c-38.865,0-63.99,25.125-64,63.99
	c-0.012,20.839,14.924,49.081,34.309,76.986c-27.892-19.376-56.121-34.309-76.954-34.309c-0.01,0-0.021,0-0.021,0
	c-38.875,0.01-64,25.135-64,64c0,21.344,14.729,48.115,28.031,64C14.729,250.552,0,277.323,0,298.667c0,38.875,25.125,64,64,64
	c20.845,0,49.081-14.932,76.975-34.309c-19.376,27.895-34.309,56.13-34.309,76.975c0,38.875,25.125,64,64,64
	c21.344,0,48.115-14.729,64-28.031c15.885,13.302,42.656,28.031,64,28.031c38.865,0,63.99-25.125,64-63.99
	c0.005-10.124-3.599-22.029-9.439-34.759c25.612,26.746,53.638,59.461,75.064,93.738c2.021,3.24,5.5,5.01,9.052,5.01
	c1.927,0,3.885-0.521,5.646-1.625c4.99-3.115,6.51-9.698,3.385-14.698c-24.319-38.915-56.159-75.348-84.107-103.936
	c15.842,8.227,30.76,13.595,43.044,13.592c0.01,0,0.021,0,0.021,0c38.875-0.01,64-25.135,64-64c0-21.344-14.729-48.115-28.031-64
	C454.604,218.781,469.333,192.01,469.333,170.667z"/>
<g>
</g>
<g>
</g>
<g>
</g>
<g>
</g>
<g>
</g>
<g>
</g>
<g>
</g>
<g>
</g>
<g>
</g>
<g>
</g>
<g>
</g>
<g>
</g>
<g>
</g>
<g>
</g>
<g>
</g>
</svg>
